{
  "accessors": [
    {
      "bufferView": 2,
      "componentType": 5126,
      "count": 3498,
      "max": [
        0.14236977696418762,
        0.0067988517694175243,
        0.1164800301194191
      ],
      "min": [
        -0.14237047731876373,
        -0.42700684070587158,
        -0.076346926391124725
      ],
      "type": "VEC3"
    },
    {
      "bufferView": 2,
      "byteOffset": 41976,
      "componentType": 5126,
      "count": 3498,
      "max": [
        0.0099997203797101974,
        0.0099999997764825821,
        0.0099982321262359619
      ],
      "min": [
        -0.0099997362121939659,
        -0.0099985804408788681,
        -0.0099982274696230888
      ],
      "type": "VEC3"
    },
    {
      "bufferView": 3,
      "componentType": 5126,
      "count": 3498,
      "max": [
        1,
        0.99916559457778931,
        0.99999493360519409,
        1
      ],
      "min": [
        -0.99995112419128418,
        -0.9996645450592041,
        -1,
        -1
      ],
      "type": "VEC4"
    },
    {
      "bufferView": 3,
      "byteOffset": 55968,
      "componentType": 5126,
      "count": 3498,
      "max": [
        1,
        1,
        1,
        1
      ],
      "min": [
        1,
        1,
        1,
        1
      ],
      "type": "VEC4"
    },
    {
      "bufferView": 1,
      "componentType": 5126,
      "count": 3498,
      "max": [
        0.99800002574920654,
        1.0019999742507935
      ],
      "min": [
        -0.0010000000474974513,
        0.00099998712539672852
      ],
      "type": "VEC2"
    },
    {
      "bufferView": 1,
      "byteOffset": 27984,
      "componentType": 5126,
      "count": 3498,
      "max": [
        0.99800002574920654,
        1.0019999742507935
      ],
      "min": [
        -0.0010000000474974513,
        0.00099998712539672852
      ],
      "type": "VEC2"
    },
    {
      "bufferView": 1,
      "byteOffset": 55968,
      "componentType": 5126,
      "count": 3498,
      "max": [
        0.99800002574920654,
        1.0019999742507935
      ],
      "min": [
        -0.0010000000474974513,
        0.00099998712539672852
      ],
      "type": "VEC2"
    },
    {
      "bufferView": 0,
      "componentType": 5125,
      "count": 14814,
      "max": [
        3497
      ],
      "min": [
        0
      ],
      "type": "SCALAR"
    },
    {
      "bufferView": 4,
      "componentType": 5126,
      "count": 1,
      "max": [
        1,
        0,
        0,
        0,
        0,
        1,
        0,
        0,
        0,
        0,
        1,
        0,
        0,
        0,
        0,
        1
      ],
      "min": [
        1,
        0,
        0,
        0,
        0,
        1,
        0,
        0,
        0,
        0,
        1,
        0,
        0,
        0,
        0,
        1
      ],
      "type": "MAT4"
    }
  ],
  "asset": {
    "extras": {
      "author": "Gigano Regulus (https://sketchfab.com/Gigano_Regulus)",
      "license": "CC-BY-4.0 (http://creativecommons.org/licenses/by/4.0/)",
      "source": "https://sketchfab.com/models/5fe438f512dc46ed8bd3bc858d46cf7d",
      "title": "Obelisk El Torturador - Yu-Gi-Oh"
    },
    "generator": "Sketchfab-3.23.4",
    "version": "2.0"
  },
  "bufferViews": [
    {
      "buffer": 0,
      "byteLength": 59256,
      "byteOffset": 0,
      "name": "floatBufferViews",
      "target": 34963
    },
    {
      "buffer": 0,
      "byteLength": 83952,
      "byteOffset": 59256,
      "byteStride": 8,
      "name": "floatBufferViews",
      "target": 34962
    },
    {
      "buffer": 0,
      "byteLength": 83952,
      "byteOffset": 143208,
      "byteStride": 12,
      "name": "floatBufferViews",
      "target": 34962
    },
    {
      "buffer": 0,
      "byteLength": 111936,
      "byteOffset": 227160,
      "byteStride": 16,
      "name": "floatBufferViews",
      "target": 34962
    },
    {
      "buffer": 0,
      "byteLength": 64,
      "byteOffset": 339096,
      "byteStride": 64,
      "name": "floatBufferViews"
    }
  ],
  "buffers": [
    {
      "byteLength": 339160,
      "uri": "scene.bin"
    }
  ],
  "images": [
    {
      "uri": "textures/4_Obelisk_1.0_emissive.png"
    },
    {
      "uri": "textures/4_Obelisk_1.0_normal.png"
    },
    {
      "uri": "textures/4_Obelisk_1.0_baseColor.png"
    }
  ],
  "materials": [
    {
      "doubleSided": true,
      "emissiveFactor": [
        1,
        1,
        1
      ],
      "emissiveTexture": {
        "index": 0,
        "texCoord": 2
      },
      "name": "4_Obelisk_1.0",
      "normalTexture": {
        "index": 1,
        "scale": 1,
        "texCoord": 1
      },
      "pbrMetallicRoughness": {
        "baseColorFactor": [
          1,
          1,
          1,
          1
        ],
        "baseColorTexture": {
          "index": 2,
          "texCoord": 0
        },
        "metallicFactor": 0,
        "roughnessFactor": 1
      }
    }
  ],
  "meshes": [
    {
      "primitives": [
        {
          "attributes": {
            "COLOR_0": 3,
            "NORMAL": 1,
            "POSITION": 0,
            "TANGENT": 2,
            "TEXCOORD_0": 4,
            "TEXCOORD_1": 5,
            "TEXCOORD_2": 6
          },
          "indices": 7,
          "material": 0,
          "mode": 4
        }
      ]
    }
  ],
  "nodes": [
    {
      "children": [
        1
      ],
      "name": "RootNode (gltf orientation matrix)",
      "rotation": [
        -0.70710678118654746,
        -0,
        -0,
        0.70710678118654757
      ]
    },
    {
      "children": [
        2
      ],
      "name": "RootNode (model correction matrix)"
    },
    {
      "children": [
        3
      ],
      "matrix": [
        1,
        0,
        0,
        0,
        0,
        0,
        1,
        0,
        0,
        -1,
        0,
        0,
        0,
        0,
        0,
        1
      ],
      "name": "Obelisk El Torturador.fbx"
    },
    {
      "children": [
        4
      ],
      "name": "RootNode"
    },
    {
      "children": [
        5
      ],
      "matrix": [
        100,
        0,
        0,
        0,
        0,
        -1.6292067939183141e-05,
        -99.999999999998678,
        0,
        0,
        99.999999999998678,
        -1.6292067939183141e-05,
        0,
        0,
        0,
        0,
        1
      ],
      "name": "Rig"
    },
    {
      "children": [
        6,
        7
      ],
      "name": ""
    },
    {
      "name": "_rootJoint"
    },
    {
      "children": [
        8
      ],
      "matrix": [
        99.999999999999986,
        6.9388939039072284e-18,
        0,
        0,
        1.130491536543288e-24,
        -1.6292100040709921e-05,
        -99.999999999999972,
        0,
        -6.9388939039072261e-18,
        99.999999999999943,
        -1.6292100040709914e-05,
        0,
        0,
        0,
        0,
        1
      ],
      "name": ""
    },
    {
      "mesh": 0,
      "name": ""
    }
  ],
  "samplers": [
    {
      "magFilter": 9729,
      "minFilter": 9987,
      "wrapS": 10497,
      "wrapT": 10497
    }
  ],
  "scene": 0,
  "scenes": [
    {
      "name": "OSG_Scene",
      "nodes": [
        0
      ]
    }
  ],
  "skins": [
    {
      "inverseBindMatrices": 8,
      "joints": [
        6
      ],
      "skeleton": 6
    }
  ],
  "textures": [
    {
      "sampler": 0,
      "source": 0
    },
    {
      "sampler": 0,
      "source": 1
    },
    {
      "sampler": 0,
      "source": 2
    }
  ]
}

